<?xml version="1.0" encoding="UTF-8" standalone="no"?>
<svg
   xmlns:dc="http://purl.org/dc/elements/1.1/"
   xmlns:cc="http://creativecommons.org/ns#"
   xmlns:rdf="http://www.w3.org/1999/02/22-rdf-syntax-ns#"
   xmlns:svg="http://www.w3.org/2000/svg"
   xmlns="http://www.w3.org/2000/svg"
   xmlns:sodipodi="http://sodipodi.sourceforge.net/DTD/sodipodi-0.dtd"
   xmlns:inkscape="http://www.inkscape.org/namespaces/inkscape"
   version="1.0"
   width="972.000000pt"
   height="972.000000pt"
   viewBox="0 0 972.000000 972.000000"
   preserveAspectRatio="xMidYMid meet"
   id="svg2"
   inkscape:version="0.91 r13725"
   sodipodi:docname="logo.svg">
  <defs
     id="defs14" />
  <sodipodi:namedview
     pagecolor="#ffffff"
     bordercolor="#666666"
     borderopacity="1"
     objecttolerance="10"
     gridtolerance="10"
     guidetolerance="10"
     inkscape:pageopacity="0"
     inkscape:pageshadow="2"
     inkscape:window-width="1855"
     inkscape:window-height="1056"
     id="namedview12"
     showgrid="false"
     inkscape:zoom="0.43852551"
     inkscape:cx="482.58423"
     inkscape:cy="607.5"
     inkscape:window-x="65"
     inkscape:window-y="24"
     inkscape:window-maximized="1"
     inkscape:current-layer="svg2" />
  <metadata
     id="metadata4">
Created by potrace 1.11, written by Peter Selinger 2001-2013
<rdf:RDF>
  <cc:Work
     rdf:about="">
    <dc:format>image/svg+xml</dc:format>
    <dc:type
       rdf:resource="http://purl.org/dc/dcmitype/StillImage" />
    <dc:title></dc:title>
  </cc:Work>
</rdf:RDF>
</metadata>
  <g
     transform="translate(0.000000,972.000000) scale(0.100000,-0.100000)"
     fill="#000000"
     stroke="none"
     id="g6">
    <path
       d="M4610 9494 c-58 -5 -338 -32 -410 -40 -30 -3 -107 -17 -170 -30 -63 -14 -131 -28 -150 -31 -93 -14 -442 -120 -555 -168 -16 -7 -41 -16 -55 -20 -113 -33 -683 -322 -755 -382 -5 -5 -48 -34 -95 -65 -417 -275 -792 -630 -1084 -1028 -43 -58 -83 -112 -89 -120 -56 -74 -249 -392 -293 -484 -13 -28 -31 -62 -39 -76 -121 -208 -304 -717 -365 -1015 -39 -189 -63 -336 -71 -440 -5 -66 -12 -131 -14 -145 -13 -63 -22 -427 -14 -595 12 -291 32 -477 71 -670 11 -55 21 -113 23 -128 2 -15 16 -71 31 -125 14 -53 29 -108 31 -122 14 -68 117 -371 178 -520 46 -112 261 -531 295 -575 4 -5 17 -27 29 -48 12 -21 26 -44 31 -50 6 -7 47 -67 92 -134 103 -152 253 -341 395 -497 189 -209 510 -489 732 -639 175 -118 227 -152 261 -170 19 -10 69 -38 110 -62 105 -60 269 -140 275 -134 14 15 44 168 54 279 6 69 16 458 21 865 14 1002 13 3825 -1 4031 -24 363 -65 485 -191 568 -85 56 -180 81 -443 115 -132 18 -254 34 -272 37 -30 4 -33 8 -44 62 -17 84 4 266 35 291 7 6 105 6 266 1 888 -30 1049 -32 1685 -21 789 14 1564 14 1750 1 353 -26 671 -101 915 -216 114 -54 165 -86 290 -180 248 -186 412 -385 545 -659 90 -185 142 -359 176 -590 20 -133 17 -480 -5 -630 -71 -478 -266 -874 -591 -1201 -463 -466 -1130 -704 -1905 -680 -113 3 -241 12 -285 20 -75 14 -83 18 -121 60 -49 53 -124 199 -131 254 -3 26 1 52 12 76 l18 37 66 -8 c112 -14 537 -10 616 6 302 60 566 222 740 456 129 173 223 454 254 764 14 133 14 484 0 609 -90 829 -553 1341 -1309 1447 -210 29 -562 14 -663 -29 -57 -24 -88 -74 -98 -162 -25 -224 -33 -933 -33 -2869 -1 -2051 4 -2361 38 -2550 34 -186 92 -277 217 -341 99 -50 361 -106 644 -138 206 -24 205 -24 215 -52 11 -29 8 -29 140 -9 216 33 562 124 765 202 228 88 488 210 670 314 76 43 328 205 360 231 6 5 61 46 123 93 61 46 119 91 128 100 9 9 69 60 133 114 227 191 431 420 681 765 89 122 223 340 276 447 15 30 32 61 39 69 12 15 155 322 155 333 0 4 10 30 23 59 91 206 153 407 226 734 41 185 78 490 92 763 12 231 1 495 -27 706 -8 61 -19 146 -24 190 -5 44 -16 114 -25 155 -9 41 -23 108 -31 149 -14 75 -38 166 -54 211 -5 14 -12 38 -14 54 -12 71 -139 412 -205 551 -11 22 -41 85 -67 140 -48 100 -147 283 -197 362 -15 24 -27 46 -27 49 0 4 -11 22 -25 40 -14 18 -53 74 -86 126 -34 51 -67 98 -73 103 -7 6 -41 48 -76 95 -82 109 -196 245 -285 339 -93 98 -356 343 -424 395 -30 23 -73 56 -95 73 -132 105 -323 233 -456 309 -36 20 -78 45 -95 55 -64 37 -335 169 -440 214 -133 56 -334 129 -430 155 -38 10 -101 28 -140 40 -38 12 -92 25 -120 30 -27 4 -122 22 -210 39 -231 44 -452 63 -745 66 -140 2 -275 1 -300 -1z"
       id="path8" />
    <path
       d="M2930 314 c-201 -6 -458 -13 -572 -13 -132 -1 -208 -5 -208 -11 0 -22 41 -49 87 -56 26 -4 316 0 643 10 732 20 1051 21 1750 0 643 -19 737 -17 776 12 56 41 47 44 -153 44 -103 0 -404 7 -668 15 -566 17 -1149 17 -1655 -1z"
       id="path10" />
  </g>
  <path
     style="fill:#ffffff;fill-opacity:1;"
     d="m 684.52491,1135.0122 c -2.08414,-2.0841 -15.877,-5.1517 -36.40338,-8.0963 -87.37079,-12.5335 -96.36871,-20.598 -100.4425,-90.0224 -2.55128,-43.47864 -2.5845,-519.55808 -0.0415,-594.5996 2.07756,-61.30645 2.95007,-65.24024 15.67699,-70.68111 10.50145,-4.48946 83.02856,-3.57282 100.78707,1.27381 39.91052,10.89234 64.81163,25.31415 90.07273,52.16689 35.90045,38.16238 53.35806,91.21622 53.50668,162.6073 0.0946,45.47633 -8.01208,85.95429 -23.29183,116.29882 -10.61307,21.07679 -36.99844,46.06667 -60.99798,57.7719 -29.84709,14.55721 -40.55903,16.55244 -86.54518,16.12018 -38.19808,-0.35907 -39.88206,-0.18494 -41.89855,4.33425 -3.1908,7.15085 -0.10147,18.62197 8.88355,32.98652 10.68993,17.09013 15.38104,18.35499 68.25187,18.40269 74.5351,0.0673 132.16979,-15.36041 184.28124,-49.32837 77.11476,-50.26595 120.10685,-132.15325 120.13887,-228.82934 0.0137,-44.22899 -7.96257,-78.70789 -26.67642,-115.30004 C 919.97888,381.75464 869.36358,341.49278 804.3443,324.3938 759.14823,312.50797 757.68994,312.44802 504.77263,312.07956 l -235.72135,-0.34343 -2.00713,5.27928 c -2.46686,6.4885 -2.59136,32.45766 -0.17383,36.26225 0.99289,1.56258 15.97989,4.7776 34.29814,7.35766 17.89406,2.52031 36.42696,5.63046 41.1842,6.91145 18.81065,5.06518 32.01004,18.8745 36.65335,38.34703 6.44961,27.04751 8.56171,260.97123 4.71929,522.68216 -1.88212,128.19404 -3.9654,161.90624 -10.00514,161.90624 -4.81062,0 -47.09163,-24.1272 -72.15154,-41.1724 C 200.53585,980.58938 124.78033,881.09891 86.241195,766.51816 65.548601,704.997 57.523433,654.10422 57.523433,584.40029 c 0,-109.71199 28.259146,-208.08846 86.006517,-299.40808 29.90661,-47.29323 78.72684,-102.11128 120.36688,-135.15457 65.5205,-51.993521 151.07224,-92.882506 228.57535,-109.246314 41.10696,-8.679221 74.35159,-11.154372 132.57316,-9.870423 42.22856,0.931258 57.39559,2.206537 83.52346,7.022842 54.26239,10.002507 92.26476,23.023525 146.1541,50.07781 50.26736,25.235925 90.54536,53.746445 132.71137,93.938925 73.54483,70.10258 130.25543,166.51519 154.44933,262.57622 12.7232,50.51708 17.7695,98.03085 16.3121,153.58575 -1.4324,54.59924 -5.4677,86.5144 -16.266,128.64638 -49.9164,194.76053 -204.57295,350.37627 -396.87499,399.33657 -16.30464,4.1511 -34.26255,8.2158 -39.90646,9.0324 -5.64391,0.8167 -11.83804,1.9226 -13.76474,2.4574 -1.92669,0.5349 -5.01305,-0.5374 -6.8586,-2.383 z"
     id="path4142"
     inkscape:connector-curvature="0"
     transform="scale(0.8,0.8)" />
</svg>
