<?xml version="1.0" encoding="UTF-8" standalone="no"?>
<svg
   xmlns:dc="http://purl.org/dc/elements/1.1/"
   xmlns:cc="http://creativecommons.org/ns#"
   xmlns:rdf="http://www.w3.org/1999/02/22-rdf-syntax-ns#"
   xmlns:svg="http://www.w3.org/2000/svg"
   xmlns="http://www.w3.org/2000/svg"
   xmlns:sodipodi="http://sodipodi.sourceforge.net/DTD/sodipodi-0.dtd"
   xmlns:inkscape="http://www.inkscape.org/namespaces/inkscape"
   version="1.0"
   width="972.000000pt"
   height="972.000000pt"
   viewBox="0 0 972.000000 972.000000"
   preserveAspectRatio="xMidYMid meet"
   id="svg2"
   inkscape:version="0.91 r13725"
   sodipodi:docname="test.svg"
   inkscape:export-filename="/home/pyericz/Pictures/safari-pinned-tab.png"
   inkscape:export-xdpi="90"
   inkscape:export-ydpi="90">
  <defs
     id="defs14" />
  <sodipodi:namedview
     pagecolor="#ffffff"
     bordercolor="#666666"
     borderopacity="1"
     objecttolerance="10"
     gridtolerance="10"
     guidetolerance="10"
     inkscape:pageopacity="0"
     inkscape:pageshadow="2"
     inkscape:window-width="1855"
     inkscape:window-height="1056"
     id="namedview12"
     showgrid="false"
     inkscape:zoom="0.61580177"
     inkscape:cx="580.70566"
     inkscape:cy="607.5"
     inkscape:window-x="65"
     inkscape:window-y="24"
     inkscape:window-maximized="1"
     inkscape:current-layer="svg2" />
  <metadata
     id="metadata4">
Created by potrace 1.11, written by Peter Selinger 2001-2013
<rdf:RDF>
  <cc:Work
     rdf:about="">
    <dc:format>image/svg+xml</dc:format>
    <dc:type
       rdf:resource="http://purl.org/dc/dcmitype/StillImage" />
    <dc:title></dc:title>
  </cc:Work>
</rdf:RDF>
</metadata>
  <g
     transform="translate(0.000000,972.000000) scale(0.100000,-0.100000)"
     fill="#000000"
     stroke="none"
     id="g6">
    <path
       d="M4610 9494 c-58 -5 -338 -32 -410 -40 -30 -3 -107 -17 -170 -30 -63 -14 -131 -28 -150 -31 -93 -14 -442 -120 -555 -168 -16 -7 -41 -16 -55 -20 -113 -33 -683 -322 -755 -382 -5 -5 -48 -34 -95 -65 -417 -275 -792 -630 -1084 -1028 -43 -58 -83 -112 -89 -120 -56 -74 -249 -392 -293 -484 -13 -28 -31 -62 -39 -76 -121 -208 -304 -717 -365 -1015 -39 -189 -63 -336 -71 -440 -5 -66 -12 -131 -14 -145 -13 -63 -22 -427 -14 -595 12 -291 32 -477 71 -670 11 -55 21 -113 23 -128 2 -15 16 -71 31 -125 14 -53 29 -108 31 -122 14 -68 117 -371 178 -520 46 -112 261 -531 295 -575 4 -5 17 -27 29 -48 12 -21 26 -44 31 -50 6 -7 47 -67 92 -134 103 -152 253 -341 395 -497 189 -209 510 -489 732 -639 175 -118 227 -152 261 -170 19 -10 69 -38 110 -62 105 -60 269 -140 275 -134 14 15 44 168 54 279 6 69 16 458 21 865 14 1002 13 3825 -1 4031 -24 363 -65 485 -191 568 -85 56 -180 81 -443 115 -132 18 -254 34 -272 37 -30 4 -33 8 -44 62 -17 84 4 266 35 291 7 6 105 6 266 1 888 -30 1049 -32 1685 -21 789 14 1564 14 1750 1 353 -26 671 -101 915 -216 114 -54 165 -86 290 -180 248 -186 412 -385 545 -659 90 -185 142 -359 176 -590 20 -133 17 -480 -5 -630 -71 -478 -266 -874 -591 -1201 -463 -466 -1130 -704 -1905 -680 -113 3 -241 12 -285 20 -75 14 -83 18 -121 60 -49 53 -124 199 -131 254 -3 26 1 52 12 76 l18 37 66 -8 c112 -14 537 -10 616 6 302 60 566 222 740 456 129 173 223 454 254 764 14 133 14 484 0 609 -90 829 -553 1341 -1309 1447 -210 29 -562 14 -663 -29 -57 -24 -88 -74 -98 -162 -25 -224 -33 -933 -33 -2869 -1 -2051 4 -2361 38 -2550 34 -186 92 -277 217 -341 99 -50 361 -106 644 -138 206 -24 205 -24 215 -52 11 -29 8 -29 140 -9 216 33 562 124 765 202 228 88 488 210 670 314 76 43 328 205 360 231 6 5 61 46 123 93 61 46 119 91 128 100 9 9 69 60 133 114 227 191 431 420 681 765 89 122 223 340 276 447 15 30 32 61 39 69 12 15 155 322 155 333 0 4 10 30 23 59 91 206 153 407 226 734 41 185 78 490 92 763 12 231 1 495 -27 706 -8 61 -19 146 -24 190 -5 44 -16 114 -25 155 -9 41 -23 108 -31 149 -14 75 -38 166 -54 211 -5 14 -12 38 -14 54 -12 71 -139 412 -205 551 -11 22 -41 85 -67 140 -48 100 -147 283 -197 362 -15 24 -27 46 -27 49 0 4 -11 22 -25 40 -14 18 -53 74 -86 126 -34 51 -67 98 -73 103 -7 6 -41 48 -76 95 -82 109 -196 245 -285 339 -93 98 -356 343 -424 395 -30 23 -73 56 -95 73 -132 105 -323 233 -456 309 -36 20 -78 45 -95 55 -64 37 -335 169 -440 214 -133 56 -334 129 -430 155 -38 10 -101 28 -140 40 -38 12 -92 25 -120 30 -27 4 -122 22 -210 39 -231 44 -452 63 -745 66 -140 2 -275 1 -300 -1z"
       id="path8" />
    <path
       d="M2930 314 c-201 -6 -458 -13 -572 -13 -132 -1 -208 -5 -208 -11 0 -22 41 -49 87 -56 26 -4 316 0 643 10 732 20 1051 21 1750 0 643 -19 737 -17 776 12 56 41 47 44 -153 44 -103 0 -404 7 -668 15 -566 17 -1149 17 -1655 -1z"
       id="path10" />
  </g>
  <path
     style="fill:#ffffff;fill-opacity:0"
     d="m 683.1737,1134.8272 c -2.02481,-2.6947 -6.6832,-3.796 -27.60628,-6.5262 -45.14983,-5.8914 -72.07006,-12.4743 -84.12691,-20.5717 -13.75212,-9.2361 -19.69566,-22.8363 -23.37956,-53.498 -2.83987,-23.6369 -2.8844,-605.22303 -0.0492,-643.27175 2.08678,-28.00533 3.9782,-33.31754 13.54134,-38.03205 13.25563,-6.53486 64.47006,-7.65998 93.57112,-2.05564 102.31976,19.70491 157.00034,101.77689 152.56883,228.99581 -1.51089,43.37443 -7.64382,72.22563 -21.38501,100.60163 -16.88542,34.86893 -49.50122,61.12227 -90.95505,73.21213 -13.80634,4.02657 -16.72685,4.27449 -52.77673,4.48 -20.98889,0.11968 -39.68374,-0.31457 -41.54411,-0.96491 -2.6567,-0.92872 -3.78914,-0.28993 -5.27767,2.97705 -3.43616,7.54153 -2.18973,15.12383 4.64605,28.26307 8.64983,16.62608 13.1412,20.73736 25.20914,23.07577 13.0993,2.53827 79.12065,2.51787 96.53765,-0.0299 76.29957,-11.16081 131.0673,-36.81511 177.04133,-82.92967 30.27854,-30.37111 49.64808,-61.27428 62.52445,-99.75475 10.68203,-31.92276 12.44404,-43.25988 13.31016,-85.63981 0.70623,-34.55685 0.43688,-40.15604 -2.73422,-56.83648 -4.5109,-23.72799 -11.00648,-43.08982 -21.38416,-63.74132 -11.77427,-23.43069 -22.57635,-38.54341 -40.32884,-56.42233 -42.00588,-42.30494 -83.28257,-60.85577 -159.19856,-71.54789 -12.29115,-1.73109 -49.42674,-2.06164 -182.68866,-1.62609 -109.35063,0.3574 -189.64575,-0.14973 -231.91268,-1.46482 -57.03925,-1.77468 -64.9372,-1.72538 -67.08129,0.41872 -5.04791,5.0479 -6.77749,34.64743 -2.43178,41.61664 0.8589,1.3774 13.17647,3.82235 34.46047,6.84012 40.63768,5.76185 52.44029,9.28765 63.06376,18.83907 8.86873,7.97375 12.38044,15.32663 15.7957,33.0734 4.05227,21.05684 5.75985,155.50861 4.64042,365.37731 -1.16898,219.15614 -2.50357,280.27097 -6.54264,299.60937 -1.49235,7.1452 -3.07684,13.3566 -3.52106,13.8032 -1.61548,1.624 -42.33894,-20.685 -65.39003,-35.8218 C 249.12961,1015.4553 197.30405,964.85288 154.3633,903.53682 138.6762,881.13687 128.74663,864.13322 113.3673,833.33428 83.84481,774.21196 66.250015,712.84362 59.306773,644.77828 56.386221,616.1478 56.870911,547.84884 60.201693,518.67271 68.900962,442.4711 93.266821,369.03623 131.20794,304.67109 189.17932,206.32563 265.6319,134.65029 365.02826,85.461395 450.43566,43.195294 522.32179,27.48629 620.65358,29.600565 c 88.0568,1.893348 148.99918,16.394301 225.72199,53.709494 53.13262,25.841771 94.20933,53.962761 135.87441,93.019191 32.19122,30.17577 57.65952,59.85097 82.66752,96.32274 29.7531,43.39222 58.9734,105.88371 73.7589,157.74336 15.7877,55.37494 23.7666,126.61507 20.3155,181.3882 -5.6243,89.26485 -21.8605,152.88836 -56.911,223.01238 -32.01,64.0411 -78.0553,125.00499 -126.4331,167.39727 -80.48077,70.5234 -170.72762,115.1984 -267.99364,132.6653 -22.29031,4.0029 -21.44844,4.004 -24.48046,-0.031 l 0,0 z"
     id="path4142"
     inkscape:connector-curvature="0"
     transform="scale(0.8,0.8)" />
  <path
     style="fill:#ffffff;fill-opacity:1"
     d="m 684.72766,1135.1152 c -1.27835,-2.3886 -4.82547,-3.5047 -15.89015,-4.9999 -39.60521,-5.352 -49.67153,-7.0011 -65.06431,-10.6592 -22.42319,-5.3288 -31.45757,-9.4765 -39.3931,-18.0856 -13.67258,-14.833 -15.73963,-26.1899 -17.97785,-98.7758 -2.14312,-69.50155 -0.70305,-558.39376 1.74769,-593.33015 2.42614,-34.58533 5.28227,-37.77225 36.74207,-40.99743 79.41575,-8.14148 149.00134,20.57672 186.42757,76.93926 23.61221,35.55914 34.59495,74.80795 36.25628,129.56846 1.08384,35.72562 -1.15078,61.30143 -7.58505,86.81273 -8.76139,34.73808 -19.83202,55.33516 -40.57995,75.49959 -15.57075,15.13287 -34.01078,26.31119 -55.67457,33.74987 -14.32141,4.91752 -19.86265,5.92294 -39.39982,7.14884 -20.55168,1.28957 -57.78816,0.56406 -64.2787,-1.2524 -3.16675,-0.88624 -6.36142,5.54405 -6.35963,12.80084 0.001,5.8144 7.84593,23.5079 14.00618,31.59133 6.44865,8.46188 11.52684,10.11629 36.7827,11.98331 67.84391,5.01533 134.35903,-7.49501 187.8719,-35.33543 27.8074,-14.46698 42.84224,-25.57606 66.74761,-49.31907 47.08212,-46.76234 71.72092,-101.90836 76.2467,-170.65375 6.09707,-92.61282 -25.02406,-165.23062 -92.60232,-216.07753 -27.44787,-20.6522 -56.63645,-33.08468 -96.622,-41.15484 -41.09696,-8.29447 -37.45986,-8.16715 -216.79054,-7.58822 -109.69509,0.35414 -190.5294,-0.15459 -232.72463,-1.46482 -55.21293,-1.71437 -64.97977,-1.67505 -66.90271,0.26936 -4.92859,4.9836 -6.76023,35.03629 -2.55052,41.84775 0.78987,1.27802 13.77262,3.84175 34.04078,6.72208 18.02015,2.56086 36.945,5.85749 42.05524,7.32581 16.69677,4.79757 27.7285,14.04946 32.881,27.57609 8.78089,23.05206 10.31317,85.1383 9.01748,365.37731 -1.09743,237.35762 -2.34561,297.89261 -6.54412,317.38081 -1.43228,6.6482 -2.99673,12.4803 -3.47654,12.9601 -0.47981,0.4798 -8.31571,-2.936 -17.4131,-7.5907 C 283.51407,1045.4158 216.96582,988.47308 165.35227,918.78132 144.58356,890.73814 131.03304,868.37344 113.80801,833.70916 83.243357,772.19972 65.862014,711.8023 59.317614,644.36363 56.719964,617.59539 56.680127,552.92239 59.245693,527.60416 70.055781,420.92507 108.27947,326.06059 175.72637,238.51954 193.1525,215.90175 240.97423,167.45246 263.23337,149.86423 334.4894,93.560714 416.567,54.939195 499.31895,38.774414 c 39.50234,-7.716391 72.55921,-10.219099 121.17224,-9.173849 90.98276,1.956261 155.94038,18.083229 235.54291,58.478014 56.35684,28.598611 96.59438,58.074681 144.4462,105.814301 16.9928,16.95289 50.4841,57.71245 64.6757,78.71159 29.7137,43.96686 60.1829,109.49842 74.016,159.18964 15.5388,55.81837 23.5029,129.86161 19.7373,183.50061 -5.0638,72.13168 -16.5494,124.8478 -39.4497,181.06476 -32.0953,78.78916 -84.8301,154.11228 -144.65286,206.61332 -78.31254,68.7279 -168.00324,113.3154 -263.89127,131.187 -25.86793,4.8213 -24.15233,4.7587 -26.18781,0.9554 z"
     id="path4144"
     inkscape:connector-curvature="0"
     transform="scale(0.8,0.8)" />
</svg>
