<?xml version="1.0" standalone="no"?>
<!DOCTYPE svg PUBLIC "-//W3C//DTD SVG 20010904//EN"
 "http://www.w3.org/TR/2001/REC-SVG-20010904/DTD/svg10.dtd">
<svg version="1.0" xmlns="http://www.w3.org/2000/svg"
 width="972.000000pt" height="972.000000pt" viewBox="0 0 972.000000 972.000000"
 preserveAspectRatio="xMidYMid meet">
<metadata>
Created by potrace 1.11, written by Peter Selinger 2001-2013
</metadata>
<g transform="translate(0.000000,972.000000) scale(0.100000,-0.100000)"
fill="#000000" stroke="none">
<path d="M4610 9494 c-58 -5 -338 -32 -410 -40 -30 -3 -107 -17 -170 -30 -63
-14 -131 -28 -150 -31 -93 -14 -442 -120 -555 -168 -16 -7 -41 -16 -55 -20
-113 -33 -683 -322 -755 -382 -5 -5 -48 -34 -95 -65 -417 -275 -792 -630
-1084 -1028 -43 -58 -83 -112 -89 -120 -56 -74 -249 -392 -293 -484 -13 -28
-31 -62 -39 -76 -121 -208 -304 -717 -365 -1015 -39 -189 -63 -336 -71 -440
-5 -66 -12 -131 -14 -145 -13 -63 -22 -427 -14 -595 12 -291 32 -477 71 -670
11 -55 21 -113 23 -128 2 -15 16 -71 31 -125 14 -53 29 -108 31 -122 14 -68
117 -371 178 -520 46 -112 261 -531 295 -575 4 -5 17 -27 29 -48 12 -21 26
-44 31 -50 6 -7 47 -67 92 -134 103 -152 253 -341 395 -497 189 -209 510 -489
732 -639 175 -118 227 -152 261 -170 19 -10 69 -38 110 -62 105 -60 269 -140
275 -134 14 15 44 168 54 279 6 69 16 458 21 865 14 1002 13 3825 -1 4031 -24
363 -65 485 -191 568 -85 56 -180 81 -443 115 -132 18 -254 34 -272 37 -30 4
-33 8 -44 62 -17 84 4 266 35 291 7 6 105 6 266 1 888 -30 1049 -32 1685 -21
789 14 1564 14 1750 1 353 -26 671 -101 915 -216 114 -54 165 -86 290 -180
248 -186 412 -385 545 -659 90 -185 142 -359 176 -590 20 -133 17 -480 -5
-630 -71 -478 -266 -874 -591 -1201 -463 -466 -1130 -704 -1905 -680 -113 3
-241 12 -285 20 -75 14 -83 18 -121 60 -49 53 -124 199 -131 254 -3 26 1 52
12 76 l18 37 66 -8 c112 -14 537 -10 616 6 302 60 566 222 740 456 129 173
223 454 254 764 14 133 14 484 0 609 -90 829 -553 1341 -1309 1447 -210 29
-562 14 -663 -29 -57 -24 -88 -74 -98 -162 -25 -224 -33 -933 -33 -2869 -1
-2051 4 -2361 38 -2550 34 -186 92 -277 217 -341 99 -50 361 -106 644 -138
206 -24 205 -24 215 -52 11 -29 8 -29 140 -9 216 33 562 124 765 202 228 88
488 210 670 314 76 43 328 205 360 231 6 5 61 46 123 93 61 46 119 91 128 100
9 9 69 60 133 114 227 191 431 420 681 765 89 122 223 340 276 447 15 30 32
61 39 69 12 15 155 322 155 333 0 4 10 30 23 59 91 206 153 407 226 734 41
185 78 490 92 763 12 231 1 495 -27 706 -8 61 -19 146 -24 190 -5 44 -16 114
-25 155 -9 41 -23 108 -31 149 -14 75 -38 166 -54 211 -5 14 -12 38 -14 54
-12 71 -139 412 -205 551 -11 22 -41 85 -67 140 -48 100 -147 283 -197 362
-15 24 -27 46 -27 49 0 4 -11 22 -25 40 -14 18 -53 74 -86 126 -34 51 -67 98
-73 103 -7 6 -41 48 -76 95 -82 109 -196 245 -285 339 -93 98 -356 343 -424
395 -30 23 -73 56 -95 73 -132 105 -323 233 -456 309 -36 20 -78 45 -95 55
-64 37 -335 169 -440 214 -133 56 -334 129 -430 155 -38 10 -101 28 -140 40
-38 12 -92 25 -120 30 -27 4 -122 22 -210 39 -231 44 -452 63 -745 66 -140 2
-275 1 -300 -1z"/>
<path d="M2930 314 c-201 -6 -458 -13 -572 -13 -132 -1 -208 -5 -208 -11 0
-22 41 -49 87 -56 26 -4 316 0 643 10 732 20 1051 21 1750 0 643 -19 737 -17
776 12 56 41 47 44 -153 44 -103 0 -404 7 -668 15 -566 17 -1149 17 -1655 -1z"/>
</g>
</svg>
