<?xml version="1.0" standalone="no"?>
<!DOCTYPE svg PUBLIC "-//W3C//DTD SVG 20010904//EN"
 "http://www.w3.org/TR/2001/REC-SVG-20010904/DTD/svg10.dtd">
<svg version="1.0" xmlns="http://www.w3.org/2000/svg"
 width="972.000000pt" height="972.000000pt" viewBox="0 0 972.000000 972.000000"
 preserveAspectRatio="xMidYMid meet">
<metadata>
Created by potrace 1.11, written by Peter Selinger 2001-2013
</metadata>
<g transform="translate(0.000000,972.000000) scale(0.100000,-0.100000)"
fill="#000000" stroke="none">
<path d="M4605 9494 c-27 -2 -113 -11 -190 -20 -77 -9 -165 -18 -195 -20 -62
-5 -263 -42 -296 -54 -12 -5 -42 -11 -66 -14 -23 -3 -90 -19 -148 -37 -58 -17
-123 -35 -145 -41 -22 -6 -44 -15 -50 -19 -5 -5 -17 -9 -27 -9 -19 0 -244 -84
-338 -127 -30 -14 -75 -33 -100 -43 -129 -53 -439 -224 -585 -323 -38 -26
-101 -69 -140 -95 -154 -103 -375 -290 -594 -502 -68 -66 -200 -217 -301 -345
-30 -38 -64 -79 -75 -91 -12 -13 -48 -62 -80 -111 -33 -48 -69 -99 -81 -113
-61 -71 -297 -506 -393 -725 -162 -370 -281 -826 -326 -1255 -36 -334 -36
-738 -1 -1019 8 -64 14 -128 14 -142 -1 -37 59 -343 89 -459 14 -52 29 -113
33 -135 5 -22 20 -72 34 -111 14 -39 26 -77 26 -83 0 -11 43 -126 101 -271 30
-73 124 -276 156 -335 120 -223 164 -301 217 -381 87 -133 130 -195 142 -205
8 -6 14 -17 14 -24 0 -8 4 -15 8 -17 4 -1 53 -61 109 -133 132 -170 293 -346
419 -459 213 -192 252 -225 331 -284 45 -33 93 -71 107 -83 76 -66 396 -264
582 -360 74 -38 139 -69 143 -69 12 0 38 99 51 195 22 149 30 752 36 2745 7
2050 4 2247 -33 2485 -29 188 -80 275 -199 337 -38 20 -87 41 -109 47 -47 13
-317 55 -460 71 -150 17 -142 13 -154 70 -6 28 -11 72 -11 98 0 62 26 183 43
199 11 11 92 10 462 -4 348 -13 602 -16 1120 -12 369 2 1005 4 1415 4 652 -1
761 -3 875 -18 562 -76 918 -238 1245 -566 137 -138 226 -261 314 -431 138
-269 199 -513 213 -840 29 -742 -278 -1408 -846 -1831 -320 -238 -699 -386
-1166 -456 -168 -25 -671 -25 -790 0 -74 15 -83 20 -123 63 -55 60 -132 216
-132 267 0 21 7 52 16 68 l15 31 72 -9 c40 -4 178 -8 307 -8 186 0 252 4 317
18 252 54 459 164 620 330 196 202 299 437 355 812 21 141 18 640 -5 779 -128
796 -574 1253 -1316 1352 -195 25 -478 15 -611 -22 -112 -32 -125 -64 -140
-334 -37 -711 -38 -4742 -1 -5127 27 -272 82 -388 221 -462 104 -56 359 -111
694 -149 160 -19 175 -24 189 -66 11 -32 647 115 827 191 8 4 33 12 55 18 42
13 202 79 295 121 252 116 559 293 749 432 340 248 614 503 848 788 32 39 70
87 86 105 15 19 55 75 89 124 33 50 78 113 98 140 21 28 71 106 112 175 64
107 111 196 244 460 12 25 41 92 64 150 23 58 48 119 55 135 23 52 75 207 96
285 11 41 28 104 38 140 69 233 123 604 142 964 11 227 1 502 -27 710 -8 61
-19 149 -24 196 -6 47 -21 135 -35 195 -14 61 -30 133 -36 160 -18 94 -90 339
-129 440 -4 11 -18 47 -30 80 -13 33 -36 88 -51 123 -16 35 -29 68 -29 73 0 6
-9 27 -20 47 -11 20 -45 89 -76 152 -31 63 -64 129 -73 145 -36 65 -102 181
-114 199 -35 57 -168 258 -177 268 -6 7 -47 63 -92 123 -123 165 -218 275
-373 431 -230 231 -316 305 -618 526 -166 122 -526 322 -773 431 -98 43 -349
137 -367 137 -7 0 -17 4 -22 9 -6 4 -39 16 -75 25 -36 10 -85 24 -110 33 -81
27 -439 100 -526 107 -38 4 -125 13 -194 22 -120 15 -592 27 -705 18z"/>
<path d="M3100 320 c-113 -4 -366 -11 -563 -15 -327 -8 -357 -10 -342 -24 23
-24 163 -25 745 -7 620 20 1012 20 1635 1 651 -20 756 -19 803 2 36 17 29 17
-283 24 -176 4 -475 12 -665 18 -368 12 -994 12 -1330 1z"/>
</g>
</svg>
