<?xml version="1.0" standalone="no"?>
<!DOCTYPE svg PUBLIC "-//W3C//DTD SVG 20010904//EN"
 "http://www.w3.org/TR/2001/REC-SVG-20010904/DTD/svg10.dtd">
<svg version="1.0" xmlns="http://www.w3.org/2000/svg"
 width="1300.000000pt" height="1300.000000pt" viewBox="0 0 1300.000000 1300.000000"
 preserveAspectRatio="xMidYMid meet">
<metadata>
Created by potrace 1.11, written by Peter Selinger 2001-2013
</metadata>
<g transform="translate(0.000000,1300.000000) scale(0.100000,-0.100000)"
fill="#000000" stroke="none">
<path d="M3735 10490 c-334 -31 -602 -155 -830 -384 -239 -240 -354 -505 -385
-890 -14 -178 -14 -5374 0 -5551 32 -387 145 -651 383 -893 150 -152 319 -255
525 -322 l113 -36 925 -950 c800 -821 1243 -1271 1081 -1099 -26 28 -47 60
-46 70 0 11 3 14 6 8 7 -18 23 -16 23 3 0 9 5 12 11 8 7 -4 10 -1 7 7 -3 8
-11 13 -18 11 -11 -3 -11 0 -1 12 7 8 21 13 32 11 18 -4 23 5 20 32 -1 7 8 10
25 7 21 -4 25 -2 20 11 -3 9 1 18 9 21 8 4 15 12 15 20 0 8 7 14 15 14 9 0 12
6 9 18 -5 14 -4 15 5 2 9 -12 11 -13 11 -1 0 8 3 11 7 8 3 -4 13 2 20 13 8 11
18 18 23 15 5 -3 11 -1 15 5 3 5 1 10 -6 10 -16 0 -2 15 14 15 7 1 16 -4 20
-10 5 -6 6 -2 3 9 -4 12 1 26 14 38 11 11 18 23 15 28 -3 6 1 7 9 4 8 -3 23 0
33 6 15 10 15 11 1 6 -12 -3 -15 -1 -11 9 3 8 9 12 14 9 5 -3 9 0 9 6 0 7 6
10 13 7 7 -3 19 4 26 15 7 11 8 17 2 13 -6 -3 -11 -1 -11 4 0 6 5 11 10 11 6
0 10 9 10 19 0 11 5 23 12 27 8 5 9 2 5 -9 -10 -26 0 -21 38 20 20 21 33 42
31 49 -2 6 6 16 17 24 20 12 21 12 9 -3 -11 -13 -10 -15 7 -10 12 3 19 9 16
13 -3 4 2 11 11 14 9 3 12 11 8 18 -5 8 -2 9 11 5 14 -6 16 -3 12 12 -3 15 -1
18 11 14 10 -4 13 -2 8 5 -5 8 -2 10 9 6 10 -4 22 1 31 15 8 11 23 21 32 21
15 0 15 2 2 10 -11 7 -18 5 -26 -5 -6 -8 -17 -15 -23 -15 -7 0 0 11 15 25 30
27 39 32 28 13 -5 -9 -2 -9 9 1 9 7 17 20 17 27 0 8 4 14 10 14 5 0 7 -8 3
-17 -8 -22 -3 -18 27 26 13 19 18 31 10 26 -9 -6 -11 -4 -6 4 5 7 14 10 22 7
9 -3 11 0 7 11 -4 11 -2 14 5 9 7 -4 12 -2 12 4 0 7 7 9 16 6 14 -5 15 -4 4 9
-10 12 -10 18 0 30 15 18 33 20 27 3 -2 -7 -10 -12 -16 -10 -7 1 -10 -2 -6 -8
14 -23 34 -10 30 20 -4 32 3 38 23 18 9 -9 12 -9 12 3 0 8 -6 21 -12 28 -11
10 -10 12 2 9 8 -2 14 3 15 10 0 6 3 12 8 12 4 0 10 0 13 0 4 0 1 -6 -5 -13
-6 -8 -7 -18 -3 -22 4 -5 1 -5 -7 0 -10 6 -12 4 -6 -5 6 -10 11 -9 22 5 7 11
13 24 13 30 0 7 9 20 19 29 15 13 20 14 24 4 4 -11 6 -11 6 0 1 8 6 10 14 6 6
-4 3 3 -8 16 -19 22 -19 23 -1 17 13 -5 17 -3 13 7 -8 20 4 28 20 14 11 -9 19
-7 36 11 17 17 18 21 4 15 -13 -5 -16 -2 -11 10 4 10 13 15 20 12 13 -5 19 6
15 28 -1 5 4 4 11 -2 11 -8 17 -6 28 11 11 19 11 21 -1 12 -8 -5 -7 -3 3 6 9
9 15 19 11 22 -7 8 58 47 68 41 4 -2 5 6 2 18 -5 19 -3 21 8 11 18 -17 34 -16
20 1 -9 11 -3 21 29 47 36 30 56 60 28 43 -7 -4 -8 -3 -4 4 4 7 14 12 22 12
11 0 12 -4 4 -19 -7 -14 -7 -22 2 -27 7 -4 8 -3 4 4 -4 7 -2 12 3 12 6 0 11 7
11 15 0 8 5 15 10 15 6 0 10 9 10 20 0 11 5 20 10 20 6 0 10 5 10 11 0 5 -4 7
-10 4 -15 -9 -12 1 4 14 11 9 16 9 22 0 5 -8 3 -9 -6 -4 -9 6 -11 4 -5 -5 6
-10 11 -9 21 5 7 10 11 21 9 25 -7 11 29 7 38 -5 5 -6 7 -3 4 6 -3 9 -1 22 4
28 6 8 5 8 -3 1 -21 -17 -29 -11 -10 8 20 22 44 18 35 -5 -5 -11 -3 -14 6 -9
7 5 10 14 7 21 -2 7 2 21 10 32 15 17 15 17 11 -5 -3 -12 -1 -20 4 -16 12 7
11 44 -1 44 -5 0 -2 8 8 18 9 11 21 17 25 14 5 -2 4 -9 -2 -15 -6 -6 -11 -18
-10 -26 0 -11 3 -10 8 4 5 11 9 24 9 29 0 5 7 13 16 18 9 5 13 14 10 20 -4 6
-2 8 4 4 6 -4 12 3 14 16 2 19 9 23 33 21 28 -2 29 -1 11 12 -11 8 -15 15 -9
15 6 0 24 11 40 23 25 21 39 24 141 26 87 2 118 6 132 19 11 8 17 19 14 24 -3
4 0 8 7 8 7 0 9 3 6 6 -8 9 54 42 89 48 15 3 72 6 126 7 92 1 99 3 95 20 -6
22 12 25 32 7 8 -8 11 -8 8 -2 -9 16 38 24 134 24 49 0 79 4 79 11 0 5 4 8 9
4 5 -3 13 0 17 6 4 8 9 7 15 -2 7 -11 9 -10 9 4 0 15 12 17 98 18 53 0 104 2
112 4 33 9 80 14 175 19 161 9 258 16 290 22 17 2 86 7 155 10 357 16 459 23
495 32 22 6 87 18 145 27 58 8 107 20 108 25 2 6 7 8 11 6 10 -7 212 77 287
119 234 131 441 361 545 606 17 41 35 75 39 77 4 2 5 12 2 24 -3 13 -1 19 5
15 11 -7 35 84 54 203 7 41 17 81 23 89 8 11 8 13 -1 7 -7 -4 -13 -2 -13 3 0
6 4 11 9 11 12 0 20 79 26 285 3 99 8 203 10 230 12 129 14 156 21 245 3 52 8
97 9 101 2 3 5 50 6 105 1 54 5 101 10 104 4 3 9 62 10 131 2 109 4 126 18
125 13 -1 17 17 23 109 4 61 7 118 8 128 1 11 6 15 13 10 7 -4 7 0 -1 10 -12
14 -11 16 7 12 20 -4 21 0 21 111 0 101 2 116 20 134 12 12 18 25 15 29 -2 5
3 8 13 7 9 0 16 5 14 13 -1 7 9 23 22 36 24 22 25 29 27 138 1 121 11 161 28
117 9 -24 9 -24 9 6 -1 41 8 53 34 46 12 -3 19 -1 15 4 -3 6 -2 16 4 24 6 10
9 11 9 3 0 -7 5 -13 11 -13 5 0 7 5 4 10 -3 6 2 10 12 11 10 0 13 3 6 6 -9 3
-5 13 12 31 13 14 22 29 19 34 -3 5 -2 8 3 7 4 -1 15 -1 23 0 13 1 13 2 0 11
-8 5 -10 10 -4 10 6 0 13 -3 17 -6 9 -10 -4 -34 -19 -34 -8 0 -11 -6 -8 -15 5
-12 10 -10 26 10 10 13 18 27 16 31 -2 4 8 11 22 16 20 7 22 11 10 19 -11 8
-12 12 -2 16 6 2 9 9 6 15 -4 6 2 8 16 3 20 -6 22 -4 17 14 -3 12 -1 19 4 15
5 -3 9 0 9 6 0 6 5 8 10 5 9 -5 14 6 12 26 -1 8 31 5 47 -6 10 -5 12 -4 7 4
-4 6 2 15 16 21 22 10 22 10 -3 5 -27 -5 -49 18 -29 30 6 4 10 1 10 -4 0 -13
19 -10 36 4 8 7 7 13 -5 22 -15 12 -15 13 0 7 10 -3 20 0 24 5 3 6 11 8 17 5
7 -4 8 -2 4 4 -4 7 -3 12 3 12 6 0 8 7 4 15 -3 9 -2 15 3 13 19 -6 75 25 70
38 -3 8 1 14 9 14 8 0 15 5 15 11 0 5 5 7 11 3 7 -4 6 2 -2 17 -11 22 -11 23
5 10 9 -8 16 -10 15 -5 -4 23 3 33 30 39 21 4 32 16 44 46 14 36 37 54 37 28
0 -5 -4 -8 -9 -5 -5 3 -11 -1 -14 -9 -11 -27 22 -4 42 31 11 19 24 34 30 34 5
0 12 12 16 28 4 15 10 21 12 15 3 -7 9 -13 14 -13 6 0 7 5 4 10 -3 6 4 10 17
10 18 0 20 2 8 10 -13 8 -12 10 3 10 9 0 16 6 15 13 -2 6 2 11 9 10 17 -3 41
29 26 34 -22 8 -14 21 10 17 12 -2 16 -1 9 2 -9 4 -6 12 11 28 13 12 27 29 30
37 4 10 6 10 6 -3 1 -10 5 -18 10 -18 14 0 23 18 11 22 -6 2 -1 9 11 16 12 8
18 9 15 3 -5 -7 -1 -8 9 -5 10 4 12 10 6 18 -6 7 -3 19 10 35 18 22 24 17 20
-18 -2 -7 2 -10 9 -6 7 4 10 22 8 40 -2 19 0 31 4 29 4 -3 8 2 8 10 0 9 7 16
15 16 8 0 14 -3 14 -7 -3 -21 3 -22 22 -4 16 15 20 26 15 46 -4 16 -3 24 3 21
5 -4 15 -1 23 6 7 7 19 13 26 14 32 3 34 5 28 29 -5 19 -1 27 16 35 20 10 21
9 6 -3 -10 -8 -13 -18 -9 -26 6 -10 10 -9 15 4 3 9 10 14 15 11 5 -3 8 7 7 24
-2 28 -1 29 16 13 17 -16 18 -15 13 23 -2 22 -1 33 4 26 10 -17 41 -4 34 14
-4 10 2 17 16 21 11 3 21 12 21 19 0 8 5 14 11 14 5 0 7 -4 4 -10 -3 -6 1 -7
9 -4 9 3 13 10 10 15 -3 5 -1 9 4 9 17 0 58 46 54 59 -3 8 0 11 7 7 7 -4 11 0
11 12 0 21 41 38 63 26 9 -5 8 -3 0 7 -18 18 -16 34 1 20 12 -10 14 -8 12 14
-3 19 0 23 10 15 10 -9 11 -6 7 9 -4 17 -1 21 16 21 12 0 20 4 17 9 -3 5 1 11
8 14 8 3 17 1 20 -6 3 -9 5 -9 5 1 1 6 8 12 17 12 8 0 12 5 9 10 -4 6 -16 8
-28 5 -16 -4 -15 -2 6 10 15 9 25 20 22 25 -4 6 1 10 9 10 8 0 14 -6 12 -12
-1 -7 -1 -10 1 -5 3 4 9 5 14 2 5 -4 6 0 3 8 -3 8 5 19 18 26 13 6 15 9 6 7
-10 -3 -18 -1 -18 4 0 6 9 10 21 10 14 0 19 5 16 14 -4 10 1 13 16 10 12 -2
16 -1 9 2 -18 8 4 34 30 34 17 0 19 5 14 33 -6 30 -5 30 5 7 l10 -25 16 30
c17 31 37 55 48 55 3 0 3 -6 -1 -12 -4 -7 3 -3 15 10 12 12 19 27 16 32 -4 6
-2 9 3 8 6 -2 10 2 10 7 0 6 -4 9 -10 7 -5 -1 -7 2 -3 8 4 6 16 8 27 4 13 -4
18 -2 14 4 -3 6 -2 13 4 17 6 4 8 10 6 14 -3 4 1 8 9 8 8 0 15 -4 15 -9 0 -4
-4 -8 -10 -8 -5 0 -10 -5 -10 -11 0 -8 5 -8 15 1 8 7 15 19 15 26 0 8 5 14 11
14 5 0 7 -5 3 -12 -5 -7 -3 -8 6 -3 10 6 9 11 -5 22 -18 12 -10 19 18 14 5 -1
6 3 2 9 -3 5 5 21 19 35 15 14 26 31 26 38 0 7 -274 215 -608 464 -334 249
-879 655 -1212 903 l-605 450 -61 120 c-192 377 -509 615 -936 703 l-103 21
-2820 2 c-1551 1 -2856 -2 -2900 -6z m1825 -1616 c245 -3 708 -2 1030 3 322 5
646 5 720 2 252 -13 473 -65 655 -153 346 -169 583 -482 662 -873 22 -111 25
-441 5 -548 -103 -533 -422 -914 -932 -1110 -204 -79 -418 -116 -680 -117
-204 -1 -308 13 -338 45 -35 37 -92 156 -92 192 0 51 11 55 145 43 130 -11
294 0 400 27 102 25 256 109 335 182 170 157 253 360 281 683 37 434 -77 831
-302 1059 -214 215 -545 324 -891 291 -148 -14 -178 -26 -205 -81 -22 -42 -23
-61 -34 -464 -14 -535 -6 -3093 9 -3209 24 -168 69 -249 165 -294 78 -36 413
-101 522 -102 52 0 58 -11 58 -92 0 -42 -7 -89 -16 -110 l-16 -37 -68 4 c-37
3 -296 10 -575 16 -461 11 -1170 3 -1505 -15 l-72 -4 -11 36 c-14 52 -13 165
3 184 8 10 44 20 107 27 370 47 439 78 490 223 29 83 38 221 45 663 11 770 8
2762 -4 2890 -19 200 -52 281 -134 329 -65 39 -124 53 -312 77 -93 13 -176 27
-182 32 -17 12 -17 142 -2 187 l12 33 141 -7 c78 -3 341 -9 586 -12z m7027
-1446 c-3 -8 -6 -5 -6 6 -1 11 2 17 5 13 3 -3 4 -12 1 -19z m-247 -248 c0 -5
-2 -10 -4 -10 -3 0 -8 5 -11 10 -3 6 -1 10 4 10 6 0 11 -4 11 -10z m-40 -34
c0 -2 -7 -7 -16 -10 -8 -3 -12 -2 -9 4 6 10 25 14 25 6z m-885 -876 c-3 -5
-12 -10 -18 -10 -7 0 -6 4 3 10 19 12 23 12 15 0z m-4431 -4365 c-4 -8 -10
-12 -15 -9 -11 6 -2 24 11 24 5 0 7 -7 4 -15z m-744 -735 c0 -5 -2 -10 -4 -10
-3 0 -8 5 -11 10 -3 6 -1 10 4 10 6 0 11 -4 11 -10z m-343 -356 c-3 -3 -12 -4
-19 -1 -8 3 -5 6 6 6 11 1 17 -2 13 -5z"/>
<path d="M12960 7790 c-13 -8 -12 -10 3 -10 9 0 17 5 17 10 0 12 -1 12 -20 0z"/>
<path d="M12390 7210 c-9 -6 -10 -10 -3 -10 6 0 15 5 18 10 8 12 4 12 -15 0z"/>
<path d="M12205 7020 c4 -6 11 -8 16 -5 14 9 11 15 -7 15 -8 0 -12 -5 -9 -10z"/>
<path d="M12043 6868 c-2 -16 1 -18 10 -9 7 7 8 14 1 21 -6 6 -10 2 -11 -12z"/>
<path d="M11963 6795 c0 -8 4 -12 9 -9 4 3 8 9 8 15 0 5 -4 9 -8 9 -5 0 -9 -7
-9 -15z"/>
<path d="M11915 6759 c-4 -6 -5 -12 -2 -15 2 -3 7 2 10 11 7 17 1 20 -8 4z"/>
<path d="M11831 6654 c0 -11 3 -14 6 -6 3 7 2 16 -1 19 -3 4 -6 -2 -5 -13z"/>
<path d="M11503 6335 c0 -8 4 -12 9 -9 5 3 6 10 3 15 -9 13 -12 11 -12 -6z"/>
<path d="M11210 6049 c0 -5 5 -7 10 -4 6 3 10 8 10 11 0 2 -4 4 -10 4 -5 0
-10 -5 -10 -11z"/>
<path d="M10960 5819 c0 -4 6 -9 13 -12 8 -3 14 0 14 7 0 7 -6 13 -14 13 -7 0
-13 -4 -13 -8z"/>
<path d="M7148 2053 c7 -3 16 -2 19 1 4 3 -2 6 -13 5 -11 0 -14 -3 -6 -6z"/>
<path d="M7108 2023 c6 -2 12 -9 12 -14 0 -6 -4 -8 -9 -5 -10 6 -25 -24 -16
-32 7 -7 34 29 35 46 0 6 -8 12 -17 11 -11 0 -13 -3 -5 -6z"/>
<path d="M6776 1674 c-5 -14 -4 -15 9 -4 17 14 19 20 6 20 -5 0 -12 -7 -15
-16z"/>
<path d="M6739 1653 c-13 -16 -12 -17 4 -4 16 13 21 21 13 21 -2 0 -10 -8 -17
-17z"/>
<path d="M6653 1572 c-7 -4 -9 -13 -4 -21 6 -9 10 -7 14 8 3 12 4 21 4 21 -1
0 -7 -4 -14 -8z"/>
<path d="M6679 1563 c-13 -16 -12 -17 4 -4 16 13 21 21 13 21 -2 0 -10 -8 -17
-17z"/>
<path d="M5820 729 c0 -5 5 -7 10 -4 6 3 10 8 10 11 0 2 -4 4 -10 4 -5 0 -10
-5 -10 -11z"/>
<path d="M5670 590 c-13 -8 -13 -10 2 -10 9 0 20 5 23 10 8 13 -5 13 -25 0z"/>
<path d="M5638 553 c7 -3 16 -2 19 1 4 3 -2 6 -13 5 -11 0 -14 -3 -6 -6z"/>
</g>
</svg>
